HIERARCHY
ROOT Hips
{
	OFFSET 0.000000 0.000000 0.000000
	CHANNELS 6 Xposition Yposition Zposition Zrotation Yrotation Xrotation 
	JOINT LowerBack
	{
		OFFSET 0.000000 0.000000 0.000000
		CHANNELS 3 Zrotation Yrotation Xrotation
		JOINT Spine
		{
			OFFSET 0.028270 2.035590 -0.193380
			CHANNELS 3 Zrotation Yrotation Xrotation
			JOINT Spine1
			{
				OFFSET 0.056720 2.048850 -0.042750
				CHANNELS 3 Zrotation Yrotation Xrotation
				JOINT Neck
				{
					OFFSET 0.000000 0.000000 0.000000
					CHANNELS 3 Zrotation Yrotation Xrotation
					JOINT Neck1
					{
						OFFSET -0.054170 1.746240 0.172020
						CHANNELS 3 Zrotation Yrotation Xrotation
						JOINT Head
						{
							OFFSET 0.104070 1.761360 -0.123970
							CHANNELS 3 Zrotation Yrotation Xrotation
							End Site
							{
								OFFSET 0.000000 0.000000 0.000000
							}
						}
					}
				}
				JOINT LeftShoulder
				{
					OFFSET 0.000000 0.000000 0.000000
					CHANNELS 3 Zrotation Yrotation Xrotation
					JOINT LeftArm
					{
						OFFSET 3.362410 1.200890 -0.311210
						CHANNELS 3 Zrotation Yrotation Xrotation
						JOINT LeftForeArm
						{
							OFFSET 4.983000 -0.000000 -0.000000
							CHANNELS 3 Zrotation Yrotation Xrotation
							JOINT LeftHand
							{
								OFFSET 3.483560 -0.000000 -0.000000
								CHANNELS 3 Zrotation Yrotation Xrotation
								JOINT LeftFingerBase
								{
									OFFSET 0.000000 0.000000 0.000000
									CHANNELS 3 Zrotation Yrotation Xrotation
									JOINT LeftHandIndex1
									{
										OFFSET 0.715260 -0.000000 -0.000000
										CHANNELS 3 Zrotation Yrotation Xrotation
										End Site
										{
											OFFSET 0.000000 0.000000 0.000000
										}
									}
								}
								JOINT LThumb
								{
									OFFSET 0.000000 0.000000 0.000000
									CHANNELS 3 Zrotation Yrotation Xrotation
									End Site
									{
										OFFSET 0.000000 0.000000 0.000000
									}
								}
							}
						}
					}
				}
				JOINT RightShoulder
				{
					OFFSET 0.000000 0.000000 0.000000
					CHANNELS 3 Zrotation Yrotation Xrotation
					JOINT RightArm
					{
						OFFSET -3.136600 1.374050 -0.404650
						CHANNELS 3 Zrotation Yrotation Xrotation
						JOINT RightForeArm
						{
							OFFSET -5.241900 -0.000000 -0.000000
							CHANNELS 3 Zrotation Yrotation Xrotation
							JOINT RightHand
							{
								OFFSET -3.444170 -0.000000 -0.000000
								CHANNELS 3 Zrotation Yrotation Xrotation
								JOINT RightFingerBase
								{
									OFFSET 0.000000 0.000000 0.000000
									CHANNELS 3 Zrotation Yrotation Xrotation
									JOINT RightHandIndex1
									{
										OFFSET -0.622530 -0.000000 -0.000000
										CHANNELS 3 Zrotation Yrotation Xrotation
										End Site
										{
											OFFSET 0.000000 0.000000 0.000000
										}
									}
								}
								JOINT RThumb
								{
									OFFSET 0.000000 0.000000 0.000000
									CHANNELS 3 Zrotation Yrotation Xrotation
									End Site
									{
										OFFSET 0.000000 0.000000 0.000000
									}
								}
							}
						}
					}
				}
			}
		}
	}
}
}
MOTION
Frames: 7
Frame Time: 0.008333
25.774450 16.654245 1.424231 159.774676 -83.843317 -130.863670 -9.354177 0.865409 3.333902 -3.415597 1.249645 -2.225832 -8.153979 1.161673 0.719301 5.417577 6.678625 4.081638 -5.653243 -0.466619 2.503202 0.000000 0.000000 0.000000 -4.514920 -0.679080 2.750286 -45.523021 -11.283677 -0.188855 -4.825527 -10.050891 -0.006985 1.861550 2.399387 0.041120 -0.136089 0.059391 -0.000000 0.000000 0.000000 0.000000 0.000000 0.000000 0.000000 20.230447 5.223893 -1.078674 75.510499 24.665827 14.932412 1.862294 31.741647 0.002534 1.521398 9.575811 0.131279 -0.014766 -0.169723 0.000000 0.000000 0.000000 0.000000 0.000000 0.000000 0.000000 
25.624270 16.682593 1.437419 159.437720 -83.850814 -130.440875 -9.463412 0.859660 3.501025 -3.447892 1.243061 -2.182082 -8.125322 1.156986 0.727214 5.317495 6.812377 4.290885 -5.639760 -0.466171 2.549243 0.000000 0.000000 0.000000 -4.585351 -1.044761 2.743159 -45.796259 -11.682836 -0.294554 -4.797702 -9.382683 -0.007459 1.957377 2.547267 0.045608 -0.132483 0.064063 -0.000000 0.000000 0.000000 0.000000 0.000000 0.000000 0.000000 20.070688 5.231798 -1.102144 75.811188 24.531050 14.517460 1.865277 31.170263 0.002576 1.559207 9.430507 0.132370 -0.014658 -0.165628 0.000000 0.000000 0.000000 0.000000 0.000000 0.000000 0.000000 
25.475620 16.711410 1.452791 159.290987 -83.851644 -130.213319 -9.525272 0.859815 3.664061 -3.469646 1.240555 -2.137029 -8.092743 1.156571 0.741076 5.189503 6.932850 4.500449 -5.628167 -0.465789 2.595389 0.000000 0.000000 0.000000 -4.665049 -1.421249 2.735297 -46.124651 -12.103817 -0.331857 -4.765725 -8.815892 -0.007886 2.035658 2.692526 0.049898 -0.128920 0.068414 -0.000000 0.000000 0.000000 0.000000 0.000000 0.000000 0.000000 19.889374 5.230049 -1.121170 76.067565 24.406868 14.148109 1.874647 30.632605 0.002731 1.643552 9.239676 0.136661 -0.014604 -0.161060 0.000000 0.000000 0.000000 0.000000 0.000000 0.000000 0.000000 
25.328658 16.740391 1.469923 159.324287 -83.845504 -130.169841 -9.545809 0.863551 3.822639 -3.482200 1.240453 -2.089275 -8.059293 1.159024 0.766071 5.044031 7.041674 4.700497 -5.619118 -0.465397 2.638786 0.000000 0.000000 0.000000 -4.757248 -1.758784 2.725656 -46.493294 -12.611839 -0.263965 -4.732104 -8.322320 -0.008238 2.095120 2.819049 0.053494 -0.125574 0.072533 -0.000000 0.000000 0.000000 0.000000 0.000000 0.000000 0.000000 19.701543 5.220651 -1.139281 76.273735 24.296677 13.833252 1.889554 30.140434 0.002976 1.778316 9.011185 0.144054 -0.014727 -0.156054 0.000000 0.000000 0.000000 0.000000 0.000000 0.000000 0.000000 
25.183196 16.769354 1.488101 159.470128 -83.832038 -130.247707 -9.536219 0.868193 3.976929 -3.487780 1.240730 -2.041417 -8.026313 1.161793 0.792865 4.892484 7.141362 4.897099 -5.613910 -0.465149 2.681298 0.000000 0.000000 0.000000 -4.847632 -2.105467 2.717841 -46.902887 -13.122144 -0.113995 -4.696509 -7.959545 -0.008519 2.133809 2.934510 0.056591 -0.122400 0.076190 -0.000000 0.000000 0.000000 0.000000 0.000000 0.000000 0.000000 19.524755 5.206142 -1.151285 76.422967 24.193913 13.579943 1.909152 29.699577 0.003287 1.962724 8.752659 0.154245 -0.015104 -0.150782 0.000000 0.000000 0.000000 0.000000 0.000000 0.000000 0.000000 
25.039383 16.798207 1.506879 159.708643 -83.815219 -130.426819 -9.498726 0.871604 4.127287 -3.486780 1.239510 -1.994314 -7.995743 1.162842 0.818470 4.743526 7.233539 5.090311 -5.613273 -0.465086 2.723085 0.000000 0.000000 0.000000 -4.936201 -2.470036 2.713489 -47.342550 -13.610581 0.116048 -4.659803 -7.752489 -0.008725 2.148672 3.041459 0.058892 -0.119450 0.079337 -0.000000 0.000000 0.000000 0.000000 0.000000 0.000000 0.000000 19.371196 5.187541 -1.155947 76.511542 24.095997 13.386251 1.932504 29.315164 0.003643 2.194912 8.470804 0.166836 -0.015799 -0.145343 0.000000 0.000000 0.000000 0.000000 0.000000 0.000000 0.000000 
24.897069 16.826967 1.525374 159.899627 -83.792146 -130.574084 -9.454480 0.870705 4.282309 -3.483977 1.234633 -1.943621 -7.968674 1.160645 0.850926 4.610012 7.323474 5.269791 -5.615036 -0.464931 2.760836 0.000000 0.000000 0.000000 -5.021445 -2.779816 2.709385 -47.798266 -14.197980 0.472831 -4.624096 -7.614145 -0.008828 2.157317 3.105549 0.060296 -0.116813 0.082226 -0.000000 0.000000 0.000000 0.000000 0.000000 0.000000 0.000000 19.247648 5.168813 -1.160988 76.545234 24.006143 13.254214 1.956804 28.986236 0.003985 2.457287 8.196971 0.180626 -0.016809 -0.139883 0.000000 0.000000 0.000000 0.000000 0.000000 0.000000 0.000000 
